<svg width="1200" height="630" viewBox="0 0 1200 630" fill="none" xmlns="http://www.w3.org/2000/svg">
  <defs>
    <linearGradient id="bg" x1="80" y1="40" x2="1120" y2="590" gradientUnits="userSpaceOnUse">
      <stop stop-color="#1D4ED8"/>
      <stop offset="1" stop-color="#06B6D4"/>
    </linearGradient>
    <linearGradient id="panel" x1="140" y1="100" x2="1040" y2="530" gradientUnits="userSpaceOnUse">
      <stop stop-color="#FFFFFF" stop-opacity="0.2"/>
      <stop offset="1" stop-color="#FFFFFF" stop-opacity="0.08"/>
    </linearGradient>
  </defs>

  <rect width="1200" height="630" fill="#0F172A"/>
  <rect x="36" y="36" width="1128" height="558" rx="48" fill="url(#bg)"/>
  <rect x="104" y="94" width="992" height="442" rx="36" fill="url(#panel)" stroke="#FFFFFF" stroke-opacity="0.2" stroke-width="2"/>

  <g transform="translate(160 148)">
    <rect x="0" y="0" width="138" height="138" rx="34" fill="#FFFFFF" fill-opacity="0.16"/>
    <path d="M28 104V42L53 73L72 52L91 79L114 42V104" stroke="#ECFEFF" stroke-width="10" stroke-linecap="round" stroke-linejoin="round"/>
    <circle cx="28" cy="104" r="6" fill="#ECFEFF"/>
    <circle cx="53" cy="73" r="6" fill="#ECFEFF"/>
    <circle cx="72" cy="52" r="6" fill="#ECFEFF"/>
    <circle cx="91" cy="79" r="6" fill="#ECFEFF"/>
    <circle cx="114" cy="42" r="6" fill="#ECFEFF"/>
  </g>

  <text x="330" y="225" fill="white" font-size="86" font-family="Inter, Arial, sans-serif" font-weight="800">MileFlow</text>
  <text x="330" y="292" fill="#E0F2FE" font-size="36" font-family="Inter, Arial, sans-serif" font-weight="500">
    Build milestone flow diagrams in minutes.
  </text>

  <g fill="#F8FAFC" fill-opacity="0.95" font-family="Inter, Arial, sans-serif" font-size="26">
    <text x="160" y="408">• Drag, connect, and customize milestones visually</text>
    <text x="160" y="454">• Export polished diagrams as PNG</text>
    <text x="160" y="500">• Created by @codehamster69</text>
  </g>
</svg>
